HIERARCHY
ROOT Hips
{
	OFFSET 0.000000 0.000000 0.000000 
	CHANNELS 6 Xposition Yposition Zposition Zrotation Xrotation Yrotation
	JOINT Spine
	{
		OFFSET -0.000000 8.061080 0.000000 
		CHANNELS 3 Zrotation Xrotation Yrotation
		JOINT Spine1
		{
			OFFSET -0.000000 20.532677 0.000000 
			CHANNELS 3 Zrotation Xrotation Yrotation
			JOINT Neck
			{
				OFFSET -0.000000 22.498795 0.000000 
				CHANNELS 3 Zrotation Xrotation Yrotation
				JOINT Head
				{
					OFFSET -0.000000 15.237408 1.966117 
					CHANNELS 3 Zrotation Xrotation Yrotation
					End Site
					{
						OFFSET -0.000000 19.661171 0.000000 
					}
				}
			}
			JOINT LeftShoulder
			{
				OFFSET 3.894675 16.042269 -0.398189 
				CHANNELS 3 Zrotation Xrotation Yrotation
				JOINT LeftArm
				{
					OFFSET 19.709621 0.000000 0.000000 
					CHANNELS 3 Zrotation Xrotation Yrotation
					JOINT LeftForeArm
					{
						OFFSET 25.566900 0.000000 0.000000 
						CHANNELS 3 Zrotation Xrotation Yrotation
						JOINT LeftHand
						{
							OFFSET 25.401896 0.000000 0.000000 
							CHANNELS 3 Zrotation Xrotation Yrotation
							End Site
							{
								OFFSET 14.745877 0.000000 0.000000 
							}
						}
					}
				}
			}
			JOINT RightShoulder
			{
				OFFSET -3.930777 16.042269 -0.398189 
				CHANNELS 3 Zrotation Xrotation Yrotation
				JOINT RightArm
				{
					OFFSET -19.709621 0.000000 0.000000 
					CHANNELS 3 Zrotation Xrotation Yrotation
					JOINT RightForeArm
					{
						OFFSET -25.566900 0.000000 0.000000 
						CHANNELS 3 Zrotation Xrotation Yrotation
						JOINT RightHand
						{
							OFFSET -25.401896 0.000000 0.000000 
							CHANNELS 3 Zrotation Xrotation Yrotation
							End Site
							{
								OFFSET -14.745877 0.000000 0.000000 
							}
						}
					}
				}
			}
		}
	}
	JOINT LeftUpLeg
	{
		OFFSET 9.830585 0.000000 0.000000 
		CHANNELS 3 Zrotation Xrotation Yrotation
		JOINT LeftLeg
		{
			OFFSET -0.000000 -46.474842 0.000000 
			CHANNELS 3 Zrotation Xrotation Yrotation
			JOINT LeftFoot
			{
				OFFSET -0.000000 -30.290520 0.000000 
				CHANNELS 3 Zrotation Xrotation Yrotation
				JOINT LeftToeBase
				{
					OFFSET -0.000000 -6.389880 14.745877 
					CHANNELS 3 Zrotation Xrotation Yrotation
					End Site
					{
						OFFSET -0.000000 0.000000 3.932234 
					}
				}
			}
		}
	}
	JOINT RightUpLeg
	{
		OFFSET -9.830585 0.000000 0.000000 
		CHANNELS 3 Zrotation Xrotation Yrotation
		JOINT RightLeg
		{
			OFFSET -0.000000 -46.474842 0.000000 
			CHANNELS 3 Zrotation Xrotation Yrotation
			JOINT RightFoot
			{
				OFFSET -0.000000 -30.290520 0.000000 
				CHANNELS 3 Zrotation Xrotation Yrotation
				JOINT RightToeBase
				{
					OFFSET -0.000000 -6.389880 14.745877 
					CHANNELS 3 Zrotation Xrotation Yrotation
					End Site
					{
						OFFSET -0.000000 0.000000 3.932234 
					}
				}
			}
		}
	}
}
MOTION
Frames: 7
Frame Time: 0.010000
-1.549776 85.146515 25.513088 5.707158 9.514758 -58.724354 -1.875721 -3.621073 -2.313492 3.114274 -0.128788 -0.744710 2.311331 13.970410 -14.296035 19.200666 6.150120 -17.617092 5.944860 10.174255 0.000388 -63.798462 27.269678 -22.889723 -10.411198 0.733449 -10.191422 6.208606 -0.005460 3.545776 -8.243246 9.667039 -11.329844 54.912586 52.059551 38.051624 3.963007 -10.226002 7.877915 3.232650 -10.412179 2.966823 10.116314 -11.222355 8.162536 -8.031651 6.344022 20.293634 13.884188 -7.139488 -11.137001 0.000000 0.000000 0.000000 -8.355985 -14.244905 17.220055 13.123515 15.287752 -15.668543 -31.773119 7.931685 8.116838 0.000000 0.000000 0.000000 
-1.439302 85.188698 25.784458 5.877179 9.556721 -60.012714 -1.913543 -3.650450 -2.315951 3.114610 -0.065495 -0.746629 2.342607 13.997816 -14.304189 19.127865 6.347286 -17.635887 6.003300 10.180941 -0.001060 -63.683361 27.282412 -22.818466 -10.374704 0.731318 -10.110001 6.142000 0.003002 3.579204 -8.227787 9.659980 -11.345535 54.905312 52.042107 38.155613 3.881398 -10.205918 8.043753 3.215632 -10.390833 3.029529 10.047859 -10.837111 8.571963 -7.964537 5.698445 20.492134 14.134046 -6.804539 -10.854496 0.000000 0.000000 0.000000 -8.243973 -14.528240 16.928240 12.838720 15.107077 -15.043354 -32.377136 8.701670 8.335662 0.000000 0.000000 0.000000 
-1.336007 85.227951 26.048725 6.052175 9.585659 -61.309498 -1.951678 -3.682156 -2.315952 3.114412 -0.005847 -0.747700 2.369642 14.018419 -14.298096 19.053801 6.545458 -17.640995 6.057969 10.193184 -0.001246 -63.569233 27.292885 -22.746210 -10.343235 0.730292 -10.027739 6.075559 0.012252 3.617500 -8.212187 9.659957 -11.364502 54.903637 52.023956 38.252129 3.802744 -10.182754 8.216671 3.196449 -10.366740 3.090107 9.967410 -10.450921 8.977150 -7.899127 5.045429 20.704531 14.394444 -6.455662 -10.564755 0.000000 0.000000 0.000000 -8.129733 -14.801863 16.621187 12.548311 14.909755 -14.402169 -32.948105 9.461802 8.531627 0.000000 0.000000 0.000000 
-1.239792 85.264061 26.305874 6.232347 9.601309 -62.612736 -1.990468 -3.716447 -2.313833 3.114181 0.050014 -0.747830 2.392940 14.032574 -14.279288 18.978786 6.743804 -17.633759 6.108219 10.209759 -0.001141 -63.456558 27.300287 -22.672607 -10.316768 0.730217 -9.944991 6.009624 0.022388 3.660585 -8.196866 9.666910 -11.387596 54.907791 52.004486 38.340958 3.727861 -10.156288 8.395221 3.174474 -10.339739 3.147871 9.874685 -10.065610 9.378375 -7.836609 4.386060 20.929716 14.667016 -6.093020 -10.267424 0.000000 0.000000 0.000000 -8.014487 -15.065977 16.298615 12.253850 14.694883 -13.751053 -33.480488 10.212482 8.701720 0.000000 0.000000 0.000000 
-1.150562 85.296844 26.555912 6.417717 9.603383 -63.920593 -2.030025 -3.753587 -2.309587 3.114246 0.102192 -0.747188 2.412972 14.040297 -14.249069 18.902716 6.941841 -17.615328 6.153696 10.229630 -0.001562 -63.345860 27.303997 -22.598148 -10.295053 0.731130 -9.861476 5.944720 0.032907 3.708176 -8.182080 9.680598 -11.415422 54.917732 51.983265 38.422123 3.657271 -10.126457 8.577576 3.149418 -10.309798 3.202338 9.769110 -9.682916 9.776322 -7.776194 3.722192 21.165371 14.950896 -5.717283 -9.962604 0.000000 0.000000 0.000000 -7.899486 -15.320794 15.960513 11.957113 14.461706 -13.096473 -33.968494 10.953949 8.842882 0.000000 0.000000 0.000000 
-1.068269 85.326134 26.798899 6.608019 9.591529 -65.231277 -2.070177 -3.793736 -2.303359 3.114523 0.151092 -0.745704 2.430482 14.041680 -14.208633 18.825100 7.139046 -17.586494 6.194145 10.251692 -0.003351 -63.237488 27.303295 -22.523132 -10.277866 0.732469 -9.777207 5.881038 0.044334 3.760041 -8.167838 9.700668 -11.448600 54.933472 51.959866 38.495651 3.591468 -10.093371 8.762005 3.120618 -10.277022 3.252857 9.650554 -9.304108 10.171116 -7.719066 3.054645 21.411160 15.247842 -5.328615 -9.650308 0.000000 0.000000 0.000000 -7.785855 -15.566247 15.606723 11.659773 14.209167 -12.445258 -34.406479 11.687107 8.952318 0.000000 0.000000 0.000000 
-0.992884 85.351830 27.034916 6.802822 9.565426 -66.543053 -2.110548 -3.837001 -2.295246 3.114645 0.197163 -0.743513 2.446483 14.036714 -14.158983 18.744959 7.334952 -17.547812 6.229885 10.275129 -0.006929 -63.131927 27.297718 -22.448563 -10.264875 0.734888 -9.691874 5.819058 0.055797 3.815865 -8.153834 9.726671 -11.487289 54.954674 51.933777 38.561474 3.531049 -10.057223 8.946837 3.087554 -10.241683 3.299014 9.518741 -8.930334 10.563136 -7.664709 2.384919 21.665239 15.557141 -4.927634 -9.330709 0.000000 0.000000 0.000000 -7.674800 -15.802259 15.237337 11.363834 13.936239 -11.804546 -34.788242 12.413089 9.026553 0.000000 0.000000 0.000000 
